<?xml version="1.0" encoding="UTF-8" standalone="no"?>
<!-- Created with Inkscape (http://www.inkscape.org/) -->

<svg
   width="112.6169mm"
   height="99.873505mm"
   viewBox="0 0 112.6169 99.873505"
   version="1.1"
   id="svg1009"
   inkscape:version="1.1 (c68e22c387, 2021-05-23)"
   sodipodi:docname="logo.svg"
   xmlns:inkscape="http://www.inkscape.org/namespaces/inkscape"
   xmlns:sodipodi="http://sodipodi.sourceforge.net/DTD/sodipodi-0.dtd"
   xmlns="http://www.w3.org/2000/svg"
   xmlns:svg="http://www.w3.org/2000/svg">
  <sodipodi:namedview
     id="namedview1011"
     pagecolor="#ffffff"
     bordercolor="#666666"
     borderopacity="1.0"
     inkscape:pageshadow="2"
     inkscape:pageopacity="0.0"
     inkscape:pagecheckerboard="0"
     inkscape:document-units="mm"
     showgrid="false"
     inkscape:zoom="0.7500982"
     inkscape:cx="196.64092"
     inkscape:cy="228.63673"
     inkscape:window-width="1920"
     inkscape:window-height="1027"
     inkscape:window-x="-8"
     inkscape:window-y="-8"
     inkscape:window-maximized="1"
     inkscape:current-layer="layer1" />
  <defs
     id="defs1006">
    <clipPath
       clipPathUnits="userSpaceOnUse"
       id="clipPath868">
      <path
         d="M 0,0 H 841.89 V 595.28 H 0 Z"
         id="path866" />
    </clipPath>
  </defs>
  <g
     inkscape:label="Layer 1"
     inkscape:groupmode="layer"
     id="layer1"
     transform="translate(-53.038346,-88.334035)">
    <g
       id="g862"
       transform="matrix(0.35277777,0,0,-0.35277777,-42.059852,265.75543)">
      <g
         id="g864"
         clip-path="url(#clipPath868)">
        <g
           id="g870"
           transform="translate(376.0543,301.0615)">
          <path
             d="m 0,0 -0.958,0.957 -8.923,-8.924 -19.241,19.241 -1.034,-1.035 20.197,-20.198 z m -37.327,9.442 8.844,8.844 19.598,-19.6 7.33,7.33 6.972,-6.972 -16.174,-16.174 z"
             style="fill:#010101;fill-opacity:1;fill-rule:nonzero;stroke:none"
             id="path872" />
        </g>
        <g
           id="g874"
           transform="translate(387.4869,322.6133)">
          <path
             d="m 0,0 -6.454,2.868 2.869,-6.453 z M -15.976,12.391 6.533,2.311 -5.896,-10.118 Z m 11.914,-26.573 -1.236,2.749 13.147,13.146 2.749,-1.234 1.114,1.115 -27.887,12.509 -1.512,-1.513 12.508,-27.888 z m -19.243,27.528 6.374,6.374 36.652,-16.492 -8.367,-8.367 -3.267,1.515 -8.048,-8.047 1.516,-3.267 -8.367,-8.366 z"
             style="fill:#010101;fill-opacity:1;fill-rule:nonzero;stroke:none"
             id="path876" />
        </g>
        <g
           id="g878"
           transform="translate(402.7838,348.4277)">
          <path
             d="M 0,0 0.359,0.359 C 1.475,1.475 2.02,2.536 1.993,3.545 1.966,4.555 1.488,5.524 0.559,6.455 -0.371,7.384 -1.342,7.861 -2.351,7.889 -3.358,7.914 -4.422,7.37 -5.535,6.255 L -5.896,5.896 Z M 4.264,10.159 C 5.404,9.018 6.161,7.861 6.533,6.693 6.905,5.524 6.984,4.382 6.772,3.267 6.562,2.151 6.121,1.062 5.458,0.001 4.794,-1.062 3.984,-2.07 3.027,-3.027 L -0.437,-6.493 -12.39,5.459 -8.924,8.925 c 0.956,0.956 1.966,1.765 3.028,2.429 1.062,0.664 2.153,1.102 3.267,1.314 1.115,0.212 2.257,0.134 3.427,-0.238 1.169,-0.372 2.323,-1.129 3.466,-2.271 m 1.114,1.116 C 4.186,12.47 2.942,13.299 1.653,13.764 0.365,14.229 -0.93,14.368 -2.229,14.182 -3.531,13.997 -4.834,13.531 -6.135,12.788 -7.437,12.045 -8.685,11.075 -9.88,9.88 l -4.502,-4.502 20.198,-20.197 1.038,1.035 -6.335,6.336 3.464,3.466 c 1.197,1.195 2.166,2.441 2.91,3.744 0.743,1.3 1.209,2.602 1.393,3.904 0.187,1.301 0.047,2.595 -0.418,3.884 -0.465,1.288 -1.295,2.53 -2.49,3.725 m 3.864,3.865 c 1.833,-1.834 3.075,-3.713 3.727,-5.639 0.65,-1.926 0.821,-3.838 0.515,-5.736 -0.303,-1.899 -1.006,-3.772 -2.11,-5.618 -1.102,-1.845 -2.503,-3.618 -4.202,-5.318 l 6.334,-6.334 -8.485,-8.484 -26.573,26.571 8.487,8.485 c 1.699,1.7 3.471,3.1 5.317,4.203 1.848,1.101 3.72,1.805 5.617,2.111 1.9,0.305 3.813,0.133 5.736,-0.518 1.926,-0.65 3.805,-1.892 5.637,-3.723"
             style="fill:#010101;fill-opacity:1;fill-rule:nonzero;stroke:none"
             id="path880" />
        </g>
        <g
           id="g882"
           transform="translate(432.3024,357.3105)">
          <path
             d="m 0,0 -20.196,20.198 -1.035,-1.035 20.197,-20.198 z m -28.402,18.366 9.003,9.003 26.57,-26.572 -9.003,-9.003 z"
             style="fill:#010101;fill-opacity:1;fill-rule:nonzero;stroke:none"
             id="path884" />
        </g>
        <g
           id="g886"
           transform="translate(433.4176,378.585)">
          <path
             d="m 0,0 c -1.273,1.274 -2.25,2.688 -2.928,4.242 -0.676,1.554 -1.028,3.14 -1.054,4.761 -0.027,1.619 0.292,3.239 0.957,4.859 0.662,1.62 1.698,3.135 3.104,4.542 0.692,0.691 1.356,1.262 1.993,1.713 0.638,0.451 1.207,0.797 1.713,1.036 0.585,0.318 1.128,0.544 1.633,0.677 L 5.02,23.345 C 4.409,23.104 3.785,22.826 3.147,22.508 2.563,22.187 1.926,21.789 1.235,21.312 0.544,20.834 -0.186,20.21 -0.956,19.439 -2.311,18.085 -3.365,16.552 -4.123,14.838 -4.88,13.126 -5.285,11.352 -5.337,9.521 -5.392,7.687 -5.071,5.854 -4.383,4.022 c 0.693,-1.833 1.809,-3.519 3.348,-5.058 1.567,-1.568 3.246,-2.703 5.04,-3.406 1.793,-0.705 3.611,-1.023 5.457,-0.956 1.847,0.065 3.644,0.498 5.397,1.294 1.753,0.796 3.347,1.913 4.782,3.346 0.796,0.797 1.448,1.579 1.953,2.351 0.505,0.769 0.9,1.461 1.192,2.072 0.32,0.689 0.56,1.354 0.719,1.99 l -1.515,0.4 C 21.885,5.47 21.686,4.873 21.394,4.263 21.154,3.703 20.814,3.087 20.377,2.409 19.938,1.732 19.349,1.021 18.604,0.278 17.144,-1.183 15.592,-2.259 13.943,-2.949 12.295,-3.64 10.657,-3.979 9.023,-3.965 7.391,-3.952 5.798,-3.605 4.243,-2.929 2.688,-2.252 1.275,-1.275 0,0 m -5.02,-5.021 c -2.124,2.125 -3.67,4.417 -4.639,6.873 -0.971,2.456 -1.429,4.933 -1.375,7.43 0.054,2.495 0.603,4.919 1.652,7.269 1.05,2.35 2.529,4.483 4.444,6.395 1.512,1.514 3.005,2.715 4.481,3.605 1.475,0.888 2.82,1.574 4.043,2.051 1.406,0.557 2.724,0.943 3.943,1.156 L 10.718,18.205 C 9.974,18.099 9.202,17.938 8.406,17.727 7.741,17.487 6.999,17.154 6.177,16.73 5.353,16.306 4.542,15.694 3.746,14.898 2.923,14.074 2.312,13.172 1.912,12.189 1.515,11.206 1.31,10.204 1.294,9.183 1.282,8.159 1.468,7.163 1.854,6.193 2.238,5.225 2.816,4.354 3.585,3.585 4.356,2.813 5.232,2.243 6.215,1.872 7.197,1.499 8.207,1.326 9.242,1.354 c 1.036,0.025 2.06,0.251 3.069,0.677 1.008,0.425 1.938,1.062 2.79,1.912 0.847,0.849 1.499,1.712 1.951,2.589 0.45,0.875 0.768,1.673 0.955,2.391 0.239,0.823 0.358,1.633 0.358,2.43 L 29.918,8.167 C 29.785,6.864 29.453,5.496 28.923,4.062 28.443,2.841 27.768,1.473 26.892,-0.041 c -0.877,-1.513 -2.086,-3.041 -3.626,-4.58 -2.073,-2.072 -4.323,-3.647 -6.753,-4.722 -2.43,-1.076 -4.893,-1.639 -7.389,-1.693 -2.496,-0.054 -4.961,0.418 -7.392,1.414 -2.427,0.996 -4.678,2.53 -6.752,4.601"
             style="fill:#010101;fill-opacity:1;fill-rule:nonzero;stroke:none"
             id="path888" />
        </g>
        <g
           id="g890"
           transform="translate(471.3434,406.4697)">
          <path
             d="m 0,0 -6.454,2.869 2.869,-6.454 z M -15.976,12.391 6.533,2.312 -5.896,-10.118 Z m 11.914,-26.573 -1.236,2.748 13.147,13.147 2.749,-1.234 1.115,1.115 -27.887,12.51 -1.513,-1.514 12.508,-27.887 z m -19.244,27.528 6.375,6.374 36.652,-16.492 -8.367,-8.367 -3.268,1.515 -8.047,-8.048 1.515,-3.266 -8.366,-8.367 z"
             style="fill:#010101;fill-opacity:1;fill-rule:nonzero;stroke:none"
             id="path892" />
        </g>
        <g
           id="g894"
           transform="translate(397.6071,268.5928)">
          <path
             d="m 0,0 c 1.992,1.991 3.063,4.003 3.207,6.035 0.147,2.031 -0.749,4.017 -2.687,5.956 -1.94,1.938 -3.917,2.827 -5.938,2.669 -2.019,-0.159 -4.021,-1.235 -6.015,-3.227 z m -0.04,-6.892 -18.284,18.286 2.349,2.35 c 3.372,3.372 6.76,5.232 10.16,5.577 3.4,0.345 6.613,-0.996 9.64,-4.023 C 6.854,12.271 8.201,9.05 7.868,5.637 7.536,2.225 5.685,-1.169 2.312,-4.541 Z m -0.078,-1.993 3.387,3.387 C 7.146,-1.621 9.189,2.19 9.402,5.936 9.614,9.68 8.114,13.16 4.9,16.373 1.687,19.587 -1.784,21.079 -5.517,20.854 -9.248,20.628 -13.053,18.577 -16.931,14.7 l -3.384,-3.387 z m -0.797,-7.17 -26.57,26.572 7.369,7.37 c 2.495,2.495 4.998,4.442 7.509,5.837 2.509,1.393 4.992,2.204 7.448,2.43 2.457,0.224 4.868,-0.141 7.231,-1.096 2.365,-0.958 4.635,-2.523 6.814,-4.701 2.177,-2.178 3.743,-4.45 4.7,-6.813 0.955,-2.363 1.319,-4.773 1.096,-7.231 C 14.454,3.857 13.652,1.367 12.271,-1.155 10.891,-3.68 8.95,-6.189 6.455,-8.685 Z"
             style="fill:#010101;fill-opacity:1;fill-rule:nonzero;stroke:none"
             id="path896" />
        </g>
        <g
           id="g898"
           transform="translate(428.7594,292.8145)">
          <path
             d="m 0,0 c -3.982,-3.984 -7.928,-4.023 -11.831,-0.12 l -13.425,13.425 -1.036,-1.036 13.426,-13.425 c 2.23,-2.232 4.542,-3.334 6.931,-3.307 2.39,0.026 4.713,1.168 6.971,3.426 2.257,2.257 3.406,4.588 3.447,6.992 0.039,2.402 -1.056,4.72 -3.287,6.951 L -12.229,26.331 -13.306,25.256 0.12,11.83 C 4.023,7.927 3.984,3.982 0,0 m 4.78,-4.781 c -1.673,-1.673 -3.397,-2.975 -5.177,-3.905 -1.78,-0.929 -3.572,-1.447 -5.377,-1.554 -1.807,-0.105 -3.621,0.232 -5.44,1.016 -1.817,0.785 -3.604,2.052 -5.357,3.805 l -16.892,16.891 8.486,8.485 16.533,-16.532 c 0.928,-0.929 1.833,-1.448 2.71,-1.554 0.876,-0.106 1.763,0.292 2.668,1.196 0.902,0.903 1.301,1.791 1.194,2.668 -0.107,0.876 -0.623,1.78 -1.553,2.709 l -16.533,16.533 8.525,8.525 16.89,-16.891 C 7.211,14.858 8.48,13.072 9.264,11.253 10.048,9.433 10.377,7.614 10.26,5.795 10.14,3.976 9.615,2.177 8.687,0.397 7.755,-1.382 6.454,-3.108 4.78,-4.781"
             style="fill:#010101;fill-opacity:1;fill-rule:nonzero;stroke:none"
             id="path900" />
        </g>
        <g
           id="g902"
           transform="translate(441.5475,324.4043)">
          <path
             d="M 0,0 0.438,0.438 C 1.446,1.446 2.078,2.529 2.33,3.685 2.583,4.84 2.18,5.948 1.115,7.012 0.055,8.072 -1.055,8.478 -2.212,8.227 -3.365,7.974 -4.448,7.344 -5.457,6.334 L -5.896,5.896 Z m -0.158,-6.772 -12.232,12.23 3.266,3.267 c 2.417,2.416 4.842,3.777 7.271,4.083 C 0.578,13.113 2.776,12.282 4.74,10.317 6.706,8.353 7.529,6.161 7.21,3.744 6.893,1.327 5.524,-1.09 3.106,-3.506 Z m 4.22,2.31 c 1.038,1.036 1.94,2.151 2.711,3.346 l 10.16,-2.589 1.234,1.234 -10.678,2.709 c 0.93,1.94 1.294,3.858 1.096,5.757 -0.198,1.9 -1.135,3.686 -2.809,5.359 -1.169,1.168 -2.417,1.964 -3.745,2.39 -1.328,0.424 -2.682,0.544 -4.061,0.36 -1.384,-0.187 -2.756,-0.66 -4.124,-1.415 -1.367,-0.758 -2.677,-1.76 -3.924,-3.008 l -4.304,-4.303 20.198,-20.198 1.038,1.036 -6.057,6.055 z m -25.614,9.043 9.163,9.163 c 1.7,1.698 3.498,3.047 5.398,4.043 1.898,0.995 3.816,1.587 5.757,1.774 1.937,0.185 3.85,-0.068 5.736,-0.758 1.887,-0.691 3.664,-1.872 5.339,-3.545 1.327,-1.328 2.269,-2.643 2.828,-3.945 0.558,-1.301 0.916,-2.483 1.075,-3.545 0.159,-1.222 0.146,-2.404 -0.041,-3.544 l 13.745,-3.786 -9.96,-9.959 -10.716,2.749 6.734,-6.733 -8.485,-8.486 z"
             style="fill:#010101;fill-opacity:1;fill-rule:nonzero;stroke:none"
             id="path904" />
        </g>
        <g
           id="g906"
           transform="translate(471.3102,333.8447)">
          <path
             d="m 0,0 -12.991,13.134 -1.036,-1.036 12.991,-13.134 z m -21.197,11.301 9.004,9.003 L 7.172,0.797 -1.832,-8.206 Z"
             style="fill:#010101;fill-opacity:1;fill-rule:nonzero;stroke:none"
             id="path908" />
        </g>
        <g
           id="g910"
           transform="translate(452.9342,355.127)">
          <path
             d="M 0,0 -0.349,2.846 -2.171,0.945 -1.82,-1.9 Z m -6.198,1.092 8.532,8.453 2.795,-9.926 -8.531,-8.453 z"
             style="fill:#010101;fill-opacity:1;fill-rule:nonzero;stroke:none"
             id="path912" />
        </g>
        <g
           id="g914"
           transform="translate(486.2037,358.5439)">
          <path
             d="m 0,0 -6.453,2.869 2.868,-6.454 z M -15.975,12.391 6.534,2.311 -5.896,-10.118 Z m 11.913,-26.574 -1.236,2.75 13.147,13.146 2.751,-1.235 1.115,1.116 -27.889,12.51 -1.513,-1.515 12.509,-27.887 z m -19.242,27.529 6.373,6.374 36.653,-16.492 -8.367,-8.367 -3.267,1.514 -8.048,-8.047 1.516,-3.266 -8.368,-8.367 z"
             style="fill:#010101;fill-opacity:1;fill-rule:nonzero;stroke:none"
             id="path916" />
        </g>
        <g
           id="g918"
           transform="translate(458.8307,502.9268)">
          <path
             d="m 0,0 -189.261,-189.261 84.497,-84.496 8.927,-8.927 0.31,-0.309 7.217,12.503 7.286,-12.616 7.283,12.616 7.283,-12.616 4.057,7.024 -86.823,86.821 L 0,-40.037 l 89.931,-89.931 -145.963,-145.963 4.142,-7.175 7.286,12.616 7.283,-12.616 7.283,12.616 7.132,-12.352 0.721,0.723 8.514,8.515 143.639,143.636 z"
             style="fill:#010101;fill-opacity:1;fill-rule:nonzero;stroke:none"
             id="path920" />
        </g>
      </g>
    </g>
  </g>
</svg>
