<?xml version="1.0" encoding="UTF-8" standalone="no"?>
<!-- Created with Inkscape (http://www.inkscape.org/) -->

<svg
   width="46.529976mm"
   height="41.265121mm"
   viewBox="0 0 46.529976 41.265121"
   version="1.1"
   id="svg1473"
   sodipodi:docname="logo_blanco.svg"
   inkscape:version="1.1 (c68e22c387, 2021-05-23)"
   xmlns:inkscape="http://www.inkscape.org/namespaces/inkscape"
   xmlns:sodipodi="http://sodipodi.sourceforge.net/DTD/sodipodi-0.dtd"
   xmlns="http://www.w3.org/2000/svg"
   xmlns:svg="http://www.w3.org/2000/svg">
  <sodipodi:namedview
     id="namedview1475"
     pagecolor="#ffffff"
     bordercolor="#666666"
     borderopacity="1.0"
     inkscape:pageshadow="2"
     inkscape:pageopacity="0.0"
     inkscape:pagecheckerboard="0"
     inkscape:document-units="mm"
     showgrid="false"
     inkscape:zoom="0.7500982"
     inkscape:cx="-155.313"
     inkscape:cy="-109.9856"
     inkscape:window-width="1920"
     inkscape:window-height="1027"
     inkscape:window-x="-8"
     inkscape:window-y="-8"
     inkscape:window-maximized="1"
     inkscape:current-layer="layer1" />
  <defs
     id="defs1470" />
  <g
     inkscape:label="Layer 1"
     inkscape:groupmode="layer"
     id="layer1"
     transform="translate(-26.470167,-44.270053)">
    <g
       id="g1190"
       transform="matrix(0.35277777,0,0,-0.35277777,50.73976,85.535069)">
      <path
         d="M 0,0 0.236,0.408 -0.062,0.109 Z"
         style="fill:#ffffff;fill-opacity:1;fill-rule:nonzero;stroke:none"
         id="path1192" />
    </g>
    <g
       id="g1194"
       transform="matrix(0.35277777,0,0,-0.35277777,40.122984,85.535069)">
      <path
         d="M 0,0 0.026,0.047 -0.102,0.175 Z"
         style="fill:#ffffff;fill-opacity:1;fill-rule:nonzero;stroke:none"
         id="path1196" />
    </g>
    <g
       id="g1198"
       transform="matrix(0.35277777,0,0,-0.35277777,41.991259,73.693589)">
      <path
         d="m 0,0 -0.396,0.396 -3.687,-3.688 -7.949,7.95 -0.429,-0.429 8.346,-8.344 z m -15.423,3.901 3.652,3.654 8.1,-8.098 3.027,3.028 2.882,-2.881 -6.682,-6.681 z"
         style="fill:#ffffff;fill-opacity:1;fill-rule:nonzero;stroke:none"
         id="path1200" />
    </g>
    <g
       id="g1202"
       transform="matrix(0.35277777,0,0,-0.35277777,43.657676,70.55235)">
      <path
         d="m 0,0 -2.667,1.186 1.186,-2.667 z M -6.602,5.119 2.699,0.955 -2.438,-4.181 Z m 4.923,-10.978 -0.51,1.135 5.431,5.432 1.136,-0.51 0.461,0.46 L -6.683,5.827 -7.31,5.202 -2.14,-6.32 Z M -9.629,5.515 -6.995,8.148 8.146,1.334 4.689,-2.123 3.341,-1.497 0.016,-4.822 0.642,-6.172 -2.814,-9.628 Z"
         style="fill:#ffffff;fill-opacity:1;fill-rule:nonzero;stroke:none"
         id="path1204" />
    </g>
    <g
       id="g1206"
       transform="matrix(0.35277777,0,0,-0.35277777,45.887337,66.789622)">
      <path
         d="m 0,0 0.147,0.148 c 0.46,0.461 0.687,0.9 0.676,1.317 C 0.812,1.882 0.614,2.282 0.229,2.667 -0.153,3.051 -0.555,3.248 -0.972,3.26 -1.389,3.27 -1.827,3.045 -2.288,2.584 L -2.437,2.436 Z M 1.761,4.197 C 2.231,3.726 2.546,3.248 2.699,2.766 2.853,2.282 2.886,1.811 2.798,1.35 2.71,0.889 2.528,0.439 2.255,0 1.979,-0.438 1.646,-0.855 1.251,-1.251 l -1.433,-1.432 -4.937,4.939 1.431,1.432 c 0.396,0.395 0.813,0.729 1.25,1.003 0.44,0.275 0.891,0.455 1.351,0.543 0.461,0.087 0.933,0.055 1.416,-0.098 C 0.812,4.981 1.289,4.669 1.761,4.197 M 2.222,4.658 C 1.729,5.152 1.215,5.495 0.683,5.687 0.149,5.879 -0.384,5.937 -0.922,5.859 -1.46,5.783 -1.998,5.591 -2.535,5.283 -3.072,4.977 -3.589,4.576 -4.082,4.082 l -1.86,-1.859 8.345,-8.346 0.428,0.428 -2.617,2.618 1.432,1.431 c 0.494,0.495 0.894,1.009 1.201,1.547 0.307,0.538 0.5,1.076 0.577,1.614 C 3.5,2.052 3.442,2.587 3.25,3.119 3.059,3.651 2.716,4.165 2.222,4.658 M 3.818,6.255 C 4.576,5.498 5.089,4.722 5.356,3.926 5.627,3.13 5.697,2.34 5.571,1.556 5.445,0.771 5.154,-0.003 4.699,-0.766 4.244,-1.528 3.665,-2.261 2.963,-2.963 L 5.579,-5.58 2.074,-9.085 -8.904,1.894 -5.399,5.399 c 0.703,0.703 1.435,1.281 2.198,1.737 0.763,0.455 1.536,0.746 2.32,0.872 0.784,0.126 1.575,0.055 2.37,-0.214 C 2.285,7.525 3.062,7.012 3.818,6.255"
         style="fill:#ffffff;fill-opacity:1;fill-rule:nonzero;stroke:none"
         id="path1208" />
    </g>
    <g
       id="g1210"
       transform="matrix(0.35277777,0,0,-0.35277777,50.189921,65.494963)">
      <path
         d="m 0,0 -8.346,8.346 -0.427,-0.428 8.345,-8.346 z m -11.735,7.589 3.719,3.72 L 2.963,0.33 -0.758,-3.39 Z"
         style="fill:#ffffff;fill-opacity:1;fill-rule:nonzero;stroke:none"
         id="path1212" />
    </g>
    <g
       id="g1214"
       transform="matrix(0.35277777,0,0,-0.35277777,50.352516,62.394011)">
      <path
         d="m 0,0 c -0.527,0.526 -0.93,1.11 -1.21,1.753 -0.28,0.642 -0.425,1.297 -0.436,1.967 -0.011,0.669 0.121,1.339 0.395,2.008 0.272,0.668 0.701,1.294 1.283,1.876 0.284,0.286 0.56,0.522 0.822,0.708 0.265,0.186 0.5,0.33 0.708,0.428 0.243,0.131 0.467,0.225 0.676,0.28 L 2.073,9.646 C 1.821,9.546 1.562,9.432 1.3,9.3 1.059,9.168 0.795,9.003 0.51,8.806 0.225,8.608 -0.077,8.351 -0.396,8.032 -0.955,7.473 -1.393,6.839 -1.704,6.131 -2.018,5.424 -2.186,4.69 -2.206,3.934 -2.229,3.176 -2.097,2.419 -1.812,1.662 c 0.287,-0.757 0.748,-1.454 1.383,-2.09 0.649,-0.647 1.342,-1.117 2.082,-1.407 0.742,-0.292 1.493,-0.423 2.256,-0.395 0.763,0.027 1.506,0.206 2.23,0.535 0.724,0.329 1.382,0.79 1.975,1.383 0.329,0.329 0.599,0.652 0.807,0.97 0.209,0.319 0.373,0.604 0.493,0.857 0.133,0.284 0.231,0.559 0.297,0.822 L 9.085,2.502 C 9.041,2.26 8.959,2.014 8.838,1.762 8.739,1.53 8.6,1.275 8.419,0.995 8.237,0.716 7.993,0.423 7.687,0.115 7.082,-0.488 6.44,-0.934 5.761,-1.218 5.079,-1.504 4.402,-1.644 3.728,-1.638 3.053,-1.633 2.395,-1.489 1.753,-1.21 1.11,-0.93 0.525,-0.526 0,0 m -2.074,-2.074 c -0.878,0.878 -1.518,1.824 -1.918,2.84 -0.402,1.014 -0.59,2.038 -0.569,3.069 0.024,1.031 0.249,2.032 0.684,3.004 0.434,0.971 1.045,1.851 1.836,2.641 0.625,0.626 1.242,1.123 1.852,1.49 0.609,0.367 1.165,0.65 1.669,0.847 0.583,0.231 1.125,0.39 1.63,0.478 L 4.428,7.522 C 4.12,7.478 3.802,7.412 3.473,7.324 3.198,7.226 2.892,7.088 2.551,6.913 2.211,6.737 1.876,6.484 1.547,6.155 1.207,5.815 0.954,5.442 0.789,5.036 0.625,4.63 0.54,4.216 0.534,3.794 0.529,3.371 0.604,2.96 0.766,2.559 0.924,2.159 1.163,1.799 1.479,1.481 1.8,1.163 2.161,0.927 2.566,0.773 2.974,0.619 3.391,0.548 3.818,0.56 4.246,0.57 4.669,0.664 5.086,0.839 5.503,1.015 5.887,1.278 6.238,1.63 c 0.351,0.35 0.618,0.707 0.806,1.069 0.185,0.362 0.318,0.692 0.394,0.988 0.1,0.34 0.15,0.674 0.15,1.003 L 12.361,3.374 C 12.306,2.837 12.169,2.271 11.949,1.679 11.752,1.174 11.472,0.608 11.109,-0.017 10.747,-0.642 10.248,-1.273 9.611,-1.909 8.756,-2.766 7.826,-3.416 6.821,-3.859 5.818,-4.305 4.801,-4.538 3.77,-4.56 2.737,-4.582 1.72,-4.387 0.716,-3.976 c -1.004,0.413 -1.935,1.046 -2.79,1.902"
         style="fill:#ffffff;fill-opacity:1;fill-rule:nonzero;stroke:none"
         id="path1216" />
    </g>
    <g
       id="g1218"
       transform="matrix(0.35277777,0,0,-0.35277777,55.880191,58.329517)">
      <path
         d="m 0,0 -2.666,1.186 1.185,-2.667 z M -6.602,5.119 2.7,0.955 -2.437,-4.181 Z M -1.679,-5.859 -2.188,-4.724 3.243,0.708 4.379,0.197 4.84,0.658 -6.684,5.827 -7.309,5.201 -2.14,-6.32 Z M -9.629,5.514 -6.995,8.147 8.147,1.334 4.69,-2.123 3.341,-1.497 0.017,-4.822 0.642,-6.172 -2.814,-9.629 Z"
         style="fill:#ffffff;fill-opacity:1;fill-rule:nonzero;stroke:none"
         id="path1220" />
    </g>
    <g
       id="g1222"
       transform="matrix(0.35277777,0,0,-0.35277777,45.132851,78.426138)">
      <path
         d="M 0,0 C 0.822,0.822 1.265,1.654 1.324,2.493 1.385,3.332 1.015,4.153 0.214,4.954 -0.587,5.755 -1.405,6.122 -2.239,6.057 -3.073,5.991 -3.901,5.547 -4.724,4.724 Z m -0.018,-2.848 -7.554,7.555 0.97,0.972 C -5.207,7.072 -3.809,7.84 -2.403,7.982 -0.998,8.125 0.329,7.571 1.58,6.32 2.831,5.069 3.388,3.739 3.25,2.329 3.113,0.919 2.348,-0.483 0.954,-1.876 Z m -0.032,-0.823 1.4,1.4 C 2.951,-0.67 3.797,0.905 3.884,2.452 3.972,3.999 3.352,5.437 2.023,6.765 0.696,8.093 -0.738,8.709 -2.28,8.616 -3.821,8.521 -5.395,7.676 -6.995,6.073 L -8.396,4.675 Z m -0.329,-2.963 -10.978,10.979 3.044,3.046 c 1.032,1.03 2.066,1.835 3.103,2.411 1.037,0.576 2.063,0.91 3.078,1.004 1.015,0.091 2.011,-0.059 2.986,-0.452 C 1.832,9.957 2.771,9.311 3.67,8.411 4.57,7.511 5.217,6.572 5.612,5.596 6.007,4.619 6.158,3.624 6.064,2.607 5.972,1.594 5.64,0.563 5.069,-0.479 4.499,-1.521 3.697,-2.558 2.666,-3.589 Z"
         style="fill:#ffffff;fill-opacity:1;fill-rule:nonzero;stroke:none"
         id="path1224" />
    </g>
    <g
       id="g1226"
       transform="matrix(0.35277777,0,0,-0.35277777,49.673489,74.895573)">
      <path
         d="m 0,0 c -1.646,-1.646 -3.275,-1.663 -4.889,-0.05 l -5.548,5.547 -0.426,-0.428 5.547,-5.547 c 0.92,-0.921 1.876,-1.377 2.864,-1.366 0.987,0.011 1.947,0.483 2.88,1.415 C 1.36,0.504 1.835,1.467 1.852,2.46 1.868,3.453 1.415,4.41 0.494,5.332 L -5.054,10.879 -5.498,10.435 0.05,4.888 C 1.662,3.275 1.646,1.646 0,0 m 1.975,-1.976 c -0.692,-0.691 -1.405,-1.229 -2.14,-1.613 -0.734,-0.384 -1.477,-0.598 -2.222,-0.642 -0.746,-0.043 -1.495,0.096 -2.247,0.419 -0.751,0.325 -1.489,0.849 -2.214,1.573 l -6.978,6.978 3.506,3.507 6.831,-6.831 c 0.384,-0.384 0.757,-0.599 1.119,-0.643 0.362,-0.043 0.728,0.122 1.101,0.495 0.373,0.373 0.54,0.74 0.496,1.102 -0.044,0.362 -0.258,0.735 -0.643,1.119 l -6.83,6.831 3.522,3.523 6.979,-6.979 C 2.979,6.139 3.503,5.4 3.826,4.649 4.149,3.897 4.287,3.146 4.238,2.394 4.187,1.643 3.973,0.899 3.588,0.164 3.204,-0.571 2.666,-1.284 1.975,-1.976"
         style="fill:#ffffff;fill-opacity:1;fill-rule:nonzero;stroke:none"
         id="path1228" />
    </g>
    <g
       id="g1230"
       transform="matrix(0.35277777,0,0,-0.35277777,51.537285,70.291224)">
      <path
         d="M 0,0 0.182,0.181 C 0.598,0.598 0.858,1.045 0.963,1.521 1.066,2 0.899,2.458 0.461,2.896 0.021,3.336 -0.437,3.503 -0.914,3.399 -1.392,3.295 -1.838,3.034 -2.255,2.617 L -2.437,2.436 Z m -0.065,-2.798 -5.054,5.053 1.348,1.349 c 1,1 2,1.562 3.004,1.688 C 0.239,5.418 1.146,5.075 1.959,4.263 2.771,3.451 3.111,2.546 2.979,1.547 2.848,0.548 2.282,-0.45 1.284,-1.448 Z m 1.744,0.954 c 0.426,0.429 0.8,0.889 1.12,1.383 l 4.197,-1.07 0.51,0.51 -4.411,1.12 C 3.479,0.899 3.629,1.692 3.547,2.478 3.465,3.262 3.078,4 2.387,4.691 1.904,5.174 1.388,5.503 0.839,5.679 0.29,5.854 -0.271,5.903 -0.839,5.827 -1.41,5.75 -1.979,5.555 -2.543,5.243 -3.108,4.93 -3.648,4.516 -4.164,4 l -1.778,-1.778 8.345,-8.345 0.428,0.428 -2.502,2.502 z m -10.583,3.737 3.786,3.786 c 0.701,0.702 1.445,1.258 2.229,1.671 0.785,0.411 1.577,0.655 2.379,0.732 C 0.29,8.158 1.081,8.055 1.86,7.769 2.64,7.483 3.374,6.995 4.064,6.304 4.614,5.755 5.004,5.212 5.233,4.675 5.465,4.137 5.613,3.647 5.679,3.21 5.745,2.704 5.738,2.217 5.662,1.745 L 11.341,0.181 7.226,-3.934 2.798,-2.798 5.58,-5.58 2.074,-9.086 Z"
         style="fill:#ffffff;fill-opacity:1;fill-rule:nonzero;stroke:none"
         id="path1232" />
    </g>
    <g
       id="g1234"
       transform="matrix(0.35277777,0,0,-0.35277777,55.87571,68.915249)">
      <path
         d="M 0,0 -5.368,5.427 -5.797,4.998 -0.429,-0.428 Z M -8.759,4.669 -5.039,8.39 2.963,0.33 -0.758,-3.391 Z"
         style="fill:#ffffff;fill-opacity:1;fill-rule:nonzero;stroke:none"
         id="path1236" />
    </g>
    <g
       id="g1238"
       transform="matrix(0.35277777,0,0,-0.35277777,53.197139,65.813275)">
      <path
         d="M 0,0 -0.146,1.176 -0.897,0.392 -0.753,-0.784 Z M -2.563,0.451 0.964,3.944 2.119,-0.157 -1.406,-3.649 Z"
         style="fill:#ffffff;fill-opacity:1;fill-rule:nonzero;stroke:none"
         id="path1240" />
    </g>
    <g
       id="g1242"
       transform="matrix(0.35277777,0,0,-0.35277777,58.046458,65.315117)">
      <path
         d="m 0,0 -2.667,1.186 1.186,-2.667 z M -6.602,5.119 2.699,0.955 -2.438,-4.181 Z M -1.679,-5.859 -2.189,-4.724 3.242,0.708 4.379,0.197 4.839,0.658 -6.683,5.827 -7.31,5.201 -2.14,-6.32 Z M -9.629,5.514 -6.995,8.147 8.146,1.334 4.69,-2.123 3.341,-1.497 0.016,-4.822 0.643,-6.172 -2.814,-9.629 Z"
         style="fill:#ffffff;fill-opacity:1;fill-rule:nonzero;stroke:none"
         id="path1244" />
    </g>
    <g
       id="g1246"
       transform="matrix(0.35277777,0,0,-0.35277777,54.05633,44.270053)">
      <path
         d="m 0,0 -78.197,-78.197 34.912,-34.912 3.688,-3.688 0.128,-0.128 2.983,5.166 3.007,-5.213 3.011,5.213 3.01,-5.213 1.676,2.903 -35.872,35.872 61.654,61.654 37.157,-37.156 -60.307,-60.308 1.711,-2.965 3.009,5.213 3.01,-5.213 3.01,5.213 2.946,-5.103 0.299,0.299 3.517,3.516 59.347,59.348 z"
         style="fill:#ffffff;fill-opacity:1;fill-rule:nonzero;stroke:none"
         id="path1248" />
    </g>
  </g>
</svg>
